<?xml version="1.0" encoding="UTF-8"?>
<svg xmlns="http://www.w3.org/2000/svg" viewBox="0 0 1920 1080" width="1920" height="1080">
  <defs>
    <style>
      .mono { font-family: 'JetBrains Mono', ui-monospace, monospace; }
      .sans { font-family: -apple-system, system-ui, sans-serif; }
      .guide { stroke: #d8e0ec; stroke-width: 1; stroke-dasharray: 4 6; }
    </style>
  </defs>

  <!-- BACKGROUND -->
  <rect width="1920" height="1080" fill="#ffffff" />
  <rect width="1920" height="1080" fill="none" stroke="#cccccc" stroke-width="2" />

  <!-- GUIDE LINES (25%, 50%, 75%) -->
  <line x1="480" y1="0" x2="480" y2="1080" class="guide" />
  <line x1="960" y1="0" x2="960" y2="1080" class="guide" />
  <line x1="1440" y1="0" x2="1440" y2="1080" class="guide" />
  <line x1="0" y1="540" x2="1920" y2="540" class="guide" />

  <!-- CENTER RETICLE -->
  <g transform="translate(960,540)">
    <line x1="-16" y1="0" x2="-5" y2="0" stroke="#888888" stroke-width="1.3" />
    <line x1="5" y1="0" x2="16" y2="0" stroke="#888888" stroke-width="1.3" />
    <circle cx="0" cy="0" r="2.5" fill="#888888" />
  </g>

  <!-- ══════════════════════════════════════════════ -->
  <!-- TIMER + STATUS (top:21, left:27) @ s=1.333    -->
  <!-- ══════════════════════════════════════════════ -->
  <g transform="translate(27,21)">
    <text class="mono" x="0" y="21" font-size="21" font-weight="700" fill="#444444">38:18</text>
    <text class="sans" x="0" y="37" font-size="12" fill="#aaaaaa" letter-spacing="0.5">SIM</text>
    <circle cx="4" cy="55" r="4" fill="#1a9e6e" />
    <text class="sans" x="16" y="59" font-size="13" fill="#1a9e6e">Replaying log...</text>
  </g>

  <!-- ══════════════════════════════════════════════ -->
  <!-- TICKER (top:21, center) @ s=1.333             -->
  <!-- ══════════════════════════════════════════════ -->
  <text class="sans" x="960" y="40" font-size="16" font-weight="500" fill="#cc9900" text-anchor="middle">MODE: Mission</text>

  <!-- ══════════════════════════════════════════════ -->
  <!-- HEADING (top:21, right:27) @ s=1.333           -->
  <!-- ══════════════════════════════════════════════ -->
  <g transform="translate(1893,21)">
    <text class="sans" x="0" y="16" font-size="13" font-weight="600" fill="#999999" text-anchor="end">HDG</text>
    <text class="mono" x="0" y="44" font-size="27" font-weight="700" fill="#333333" text-anchor="end">226</text>
  </g>

  <!-- ══════════════════════════════════════════════ -->
  <!-- SPEED STACK (left:22%, vcenter, right-aligned) -->
  <!-- @ s=1.333: val=37px, pinned=19px, label=13px  -->
  <!-- ══════════════════════════════════════════════ -->
  <g transform="translate(480,540)">
    <!-- Label -->
    <text class="sans" x="0" y="-62" font-size="13" font-weight="600" fill="#999999" text-anchor="end" letter-spacing="0.7">GS</text>
    <!-- Value box: ~120 x 48 -->
    <rect x="-122" y="-56" width="122" height="48" rx="4" fill="none" stroke="#bbbbbb" stroke-width="1.3" />
    <text class="mono" x="-61" y="-22" font-size="37" font-weight="700" fill="#222222" text-anchor="middle">3.3</text>
    <!-- Arrow pointer -->
    <polygon points="3,-32 12,-26 3,-20" fill="#bbbbbb" />
    <!-- Unit -->
    <text class="sans" x="0" y="4" font-size="11" fill="#aaaaaa" text-anchor="end">m/s</text>

    <!-- Pinned values: 19px, ~22px line spacing -->
    <text class="mono" x="0" y="-76" font-size="19" font-weight="600" fill="#2878ff" text-anchor="end">4.5</text>
    <text class="mono" x="0" y="-98" font-size="19" font-weight="600" fill="#ff2850" text-anchor="end">3.7</text>
    <text class="mono" x="0" y="-120" font-size="19" font-weight="600" fill="#ffc828" text-anchor="end">1.9</text>
    <text class="mono" x="0" y="-142" font-size="19" font-weight="600" fill="#28dc50" text-anchor="end">1.7</text>
    <text class="mono" x="0" y="-164" font-size="19" font-weight="600" fill="#ff8c00" text-anchor="end">3.4</text>
    <text class="mono" x="0" y="-186" font-size="19" font-weight="600" fill="#b43cff" text-anchor="end">4.5</text>
    <text class="mono" x="0" y="-208" font-size="19" font-weight="600" fill="#ff64a0" text-anchor="end">3.4</text>
    <text class="mono" x="0" y="-230" font-size="19" font-weight="600" fill="#00c8c8" text-anchor="end">1.7</text>
    <text class="mono" x="0" y="-252" font-size="19" font-weight="600" fill="#ffdc64" text-anchor="end">1.9</text>
    <text class="mono" x="0" y="-274" font-size="19" font-weight="600" fill="#6464ff" text-anchor="end">3.7</text>
    <text class="mono" x="0" y="-296" font-size="19" font-weight="600" fill="#ffb48c" text-anchor="end">4.5</text>
    <text class="mono" x="0" y="-318" font-size="19" font-weight="600" fill="#8cffc8" text-anchor="end">1.6</text>
    <text class="mono" x="0" y="-340" font-size="19" font-weight="600" fill="#ff3cc8" text-anchor="end">2.1</text>
    <text class="mono" x="0" y="-362" font-size="19" font-weight="600" fill="#8cc8ff" text-anchor="end">3.9</text>
    <text class="mono" x="0" y="-384" font-size="19" font-weight="600" fill="#c8ff3c" text-anchor="end">3.9</text>
  </g>

  <!-- ══════════════════════════════════════════════ -->
  <!-- ALTITUDE STACK (right:22%, vcenter, left-aligned) -->
  <!-- ══════════════════════════════════════════════ -->
  <g transform="translate(1440,540)">
    <!-- Label -->
    <text class="sans" x="0" y="-62" font-size="13" font-weight="600" fill="#999999" letter-spacing="0.7">ALT</text>
    <!-- Value box -->
    <rect x="0" y="-56" width="122" height="48" rx="4" fill="none" stroke="#bbbbbb" stroke-width="1.3" />
    <text class="mono" x="61" y="-22" font-size="37" font-weight="700" fill="#222222" text-anchor="middle">18.2</text>
    <!-- Arrow pointer -->
    <polygon points="-3,-32 -12,-26 -3,-20" fill="#bbbbbb" />
    <!-- VS -->
    <text class="mono" x="0" y="4" font-size="17" font-weight="600" fill="#cc3333">&#9660; 0.6 m/s</text>

    <!-- Pinned values with VS arrows, 19px, ~22px spacing -->
    <text class="mono" x="0" y="-76" font-size="19" font-weight="600" fill="#2878ff">21.4</text>
    <text class="mono" x="60" y="-76" font-size="12" fill="#2878ff">&#9650;</text>
    <text class="mono" x="0" y="-98" font-size="19" font-weight="600" fill="#ff2850">17.2</text>
    <text class="mono" x="60" y="-98" font-size="12" fill="#ff2850">&#9660;</text>
    <text class="mono" x="0" y="-120" font-size="19" font-weight="600" fill="#ffc828">13.6</text>
    <text class="mono" x="60" y="-120" font-size="12" fill="#ffc828">&#9660;</text>
    <text class="mono" x="0" y="-142" font-size="19" font-weight="600" fill="#28dc50">13.4</text>
    <text class="mono" x="60" y="-142" font-size="12" fill="#28dc50">&#9660;</text>
    <text class="mono" x="0" y="-164" font-size="19" font-weight="600" fill="#ff8c00">16.6</text>
    <text class="mono" x="60" y="-164" font-size="12" fill="#ff8c00">&#9650;</text>
    <text class="mono" x="0" y="-186" font-size="19" font-weight="600" fill="#b43cff">20.9</text>
    <text class="mono" x="60" y="-186" font-size="12" fill="#b43cff">&#9650;</text>
    <text class="mono" x="0" y="-208" font-size="19" font-weight="600" fill="#ff64a0">23.0</text>
    <text class="mono" x="60" y="-208" font-size="12" fill="#ff64a0">&#9650;</text>
    <text class="mono" x="0" y="-230" font-size="19" font-weight="600" fill="#00c8c8">21.3</text>
    <text class="mono" x="60" y="-230" font-size="12" fill="#00c8c8">&#9660;</text>
    <text class="mono" x="0" y="-252" font-size="19" font-weight="600" fill="#ffdc64">17.1</text>
    <text class="mono" x="60" y="-252" font-size="12" fill="#ffdc64">&#9660;</text>
    <text class="mono" x="0" y="-274" font-size="19" font-weight="600" fill="#6464ff">13.6</text>
    <text class="mono" x="60" y="-274" font-size="12" fill="#6464ff">&#9650;</text>
    <text class="mono" x="0" y="-296" font-size="19" font-weight="600" fill="#ffb48c">13.4</text>
    <text class="mono" x="60" y="-296" font-size="12" fill="#ffb48c">&#9650;</text>
    <text class="mono" x="0" y="-318" font-size="19" font-weight="600" fill="#8cffc8">16.7</text>
    <text class="mono" x="60" y="-318" font-size="12" fill="#8cffc8">&#9650;</text>
    <text class="mono" x="0" y="-340" font-size="19" font-weight="600" fill="#ff3cc8">21.0</text>
    <text class="mono" x="60" y="-340" font-size="12" fill="#ff3cc8">&#8212;</text>
    <text class="mono" x="0" y="-362" font-size="19" font-weight="600" fill="#8cc8ff">23.0</text>
    <text class="mono" x="60" y="-362" font-size="12" fill="#8cc8ff">&#9660;</text>
    <text class="mono" x="0" y="-384" font-size="19" font-weight="600" fill="#c8ff3c">21.3</text>
    <text class="mono" x="60" y="-384" font-size="12" fill="#c8ff3c">&#9660;</text>
  </g>

  <!-- ══════════════════════════════════════════════ -->
  <!-- STRIP (below ticker, top-center)               -->
  <!-- Spans 25%-75% width (matches transport)        -->
  <!-- ══════════════════════════════════════════════ -->
  <g transform="translate(540,52)">
    <rect x="0" y="0" width="840" height="80" rx="3" fill="#f9f5ee" stroke="#cc8833" stroke-width="1" stroke-dasharray="6 3" />
    <text class="mono" x="420" y="44" font-size="12" font-weight="600" fill="#cc8833" text-anchor="middle">STRIP</text>
  </g>

  <!-- ══════════════════════════════════════════════ -->
  <!-- TOP-LEFT PANEL (top:95, left:95, 293x293)     -->
  <!-- Same size and offset as radar, mirrored to top -->
  <!-- ══════════════════════════════════════════════ -->
  <g transform="translate(95,95)">
    <rect x="0" y="0" width="293" height="293" rx="3" fill="#f5f5f8" stroke="#0090a3" stroke-width="1.3" />
    <text class="mono" x="8" y="18" font-size="14" font-weight="600" fill="#0090a3">PANEL 1</text>
    <!-- Crosshair -->
    <line x1="140" y1="147" x2="154" y2="147" stroke="#bbbbbb" stroke-width="1" />
    <line x1="147" y1="140" x2="147" y2="154" stroke="#bbbbbb" stroke-width="1" />
    <!-- Scale bar -->
    <line x1="10" y1="277" x2="110" y2="277" stroke="#bbbbbb" stroke-width="1.5" />
    <line x1="10" y1="272" x2="10" y2="282" stroke="#bbbbbb" stroke-width="1" />
    <line x1="110" y1="272" x2="110" y2="282" stroke="#bbbbbb" stroke-width="1" />
    <text class="mono" x="60" y="292" font-size="11" fill="#aaaaaa" text-anchor="middle">50m</text>
  </g>

  <!-- ══════════════════════════════════════════════ -->
  <!-- TOP-RIGHT PANEL (top:95, right:95, 293x293)   -->
  <!-- ══════════════════════════════════════════════ -->
  <g transform="translate(1532,95)">
    <rect x="0" y="0" width="293" height="293" rx="3" fill="#f5f5f8" stroke="#0090a3" stroke-width="1.3" />
    <text class="mono" x="8" y="18" font-size="14" font-weight="600" fill="#0090a3">PANEL 2</text>
    <!-- Crosshair -->
    <line x1="140" y1="147" x2="154" y2="147" stroke="#bbbbbb" stroke-width="1" />
    <line x1="147" y1="140" x2="147" y2="154" stroke="#bbbbbb" stroke-width="1" />
    <!-- Scale bar -->
    <line x1="183" y1="277" x2="283" y2="277" stroke="#bbbbbb" stroke-width="1.5" />
    <line x1="183" y1="272" x2="183" y2="282" stroke="#bbbbbb" stroke-width="1" />
    <line x1="283" y1="272" x2="283" y2="282" stroke="#bbbbbb" stroke-width="1" />
    <text class="mono" x="233" y="292" font-size="11" fill="#aaaaaa" text-anchor="middle">50m</text>
  </g>

  <!-- ══════════════════════════════════════════════ -->
  <!-- RADAR PANEL (bottom:95, left:95, 293x293)     -->
  <!-- 293x293 (220*1.333) ortho-style square        -->
  <!-- ══════════════════════════════════════════════ -->
  <g transform="translate(95,692)">
    <rect x="0" y="0" width="293" height="293" rx="3" fill="#f5f5f8" stroke="#0090a3" stroke-width="1.3" />
    <text class="mono" x="10" y="18" font-size="14" font-weight="600" fill="#0090a3">RADAR</text>

    <!-- Range rings -->
    <circle cx="147" cy="147" r="120" fill="none" stroke="#dddddd" stroke-width="1" />
    <circle cx="147" cy="147" r="80" fill="none" stroke="#e4e4e4" stroke-width="1" />
    <circle cx="147" cy="147" r="40" fill="none" stroke="#eaeaea" stroke-width="1" />

    <!-- Bearing lines (heading-up, rotated ~226deg) -->
    <g transform="translate(147,147) rotate(-226)">
      <line x1="0" y1="-120" x2="0" y2="-100" stroke="#cccccc" stroke-width="1" />
      <line x1="0" y1="120" x2="0" y2="100" stroke="#dddddd" stroke-width="1" />
      <line x1="-120" y1="0" x2="-100" y2="0" stroke="#dddddd" stroke-width="1" />
      <line x1="120" y1="0" x2="100" y2="0" stroke="#dddddd" stroke-width="1" />
      <line x1="60" y1="-103.9" x2="50" y2="-86.6" stroke="#e4e4e4" stroke-width="1" />
      <line x1="103.9" y1="-60" x2="86.6" y2="-50" stroke="#e4e4e4" stroke-width="1" />
      <line x1="103.9" y1="60" x2="86.6" y2="50" stroke="#e4e4e4" stroke-width="1" />
      <line x1="60" y1="103.9" x2="50" y2="86.6" stroke="#e4e4e4" stroke-width="1" />
      <line x1="-60" y1="103.9" x2="-50" y2="86.6" stroke="#e4e4e4" stroke-width="1" />
      <line x1="-103.9" y1="60" x2="-86.6" y2="50" stroke="#e4e4e4" stroke-width="1" />
      <line x1="-103.9" y1="-60" x2="-86.6" y2="-50" stroke="#e4e4e4" stroke-width="1" />
      <line x1="-60" y1="-103.9" x2="-50" y2="-86.6" stroke="#e4e4e4" stroke-width="1" />

      <!-- Cardinals -->
      <g transform="translate(0,-132) rotate(226)"><text class="mono" x="0" y="4" font-size="14" font-weight="700" fill="#cc3333" text-anchor="middle">N</text></g>
      <g transform="translate(132,0) rotate(226)"><text class="mono" x="0" y="4" font-size="13" font-weight="600" fill="#999999" text-anchor="middle">E</text></g>
      <g transform="translate(0,132) rotate(226)"><text class="mono" x="0" y="4" font-size="13" font-weight="600" fill="#999999" text-anchor="middle">S</text></g>
      <g transform="translate(-132,0) rotate(226)"><text class="mono" x="0" y="4" font-size="13" font-weight="600" fill="#999999" text-anchor="middle">W</text></g>
    </g>

    <!-- Self -->
    <polygon points="147,139 152,152 142,152" fill="#0090a3" />

    <!-- Drone blips -->
    <circle cx="190" cy="75" r="5" fill="#2878ff" />
    <circle cx="115" cy="200" r="5" fill="#ff2850" />
    <circle cx="225" cy="165" r="5" fill="#ffc828" />
    <circle cx="70" cy="100" r="5" fill="#28dc50" />
    <circle cx="160" cy="240" r="5" fill="#ff8c00" />
    <circle cx="88" cy="55" r="5" fill="#b43cff" />
    <circle cx="248" cy="118" r="5" fill="#ff64a0" />
    <circle cx="50" cy="158" r="5" fill="#00c8c8" />

    <!-- Scale bar -->
    <line x1="10" y1="277" x2="110" y2="277" stroke="#bbbbbb" stroke-width="1.5" />
    <line x1="10" y1="272" x2="10" y2="282" stroke="#bbbbbb" stroke-width="1" />
    <line x1="110" y1="272" x2="110" y2="282" stroke="#bbbbbb" stroke-width="1" />
    <text class="mono" x="60" y="292" font-size="11" fill="#aaaaaa" text-anchor="middle">50m</text>
  </g>

  <!-- ══════════════════════════════════════════════ -->
  <!-- BARS + DEBUG (bottom-right sidebar)            -->
  <!-- 95px from right edge (mirrors radar offset)    -->
  <!-- Bars on left, debug on right                   -->
  <!-- ══════════════════════════════════════════════ -->

  <!-- 4 vertical bar gauges — each 24px wide, 16px gap, 293px tall -->
  <!-- Left edge at x=1532 (right panel left edge), bottom aligned with radar -->
<!-- Debug panel — right of bars, same vertical span -->
<!-- ══════════════════════════════════════════════ -->
  <!-- GIMBAL RINGS ROW (bottom:56px @ s=1.333)      -->
  <!-- 43x43 per cell (32*1.333), 8px gap            -->
  <!-- 15 cells: 15*43 + 14*8 = 757px, offset: -378  -->
  <!-- Bottom of row at y=1024 (1080-56)             -->
  <!-- ══════════════════════════════════════════════ -->
  <g transform="translate(960,980)">
    <g transform="translate(-378,0)">
      <g transform="translate(0,0)">
        <ellipse cx="21" cy="18" rx="16" ry="18" fill="none" stroke="#2878ff" stroke-width="1.3" opacity="0.7" />
        <ellipse cx="21" cy="18" rx="18" ry="5" fill="none" stroke="#2878ff" stroke-width="1.3" opacity="0.5" />
        <circle cx="21" cy="18" r="2" fill="#2878ff" opacity="0.5" />
        <text class="mono" x="21" y="48" font-size="11" font-weight="700" fill="#2878ff" text-anchor="middle">D2</text>
      </g>
      <g transform="translate(51,0)">
        <ellipse cx="21" cy="18" rx="16" ry="18" fill="none" stroke="#ff2850" stroke-width="1.3" opacity="0.7" />
        <ellipse cx="21" cy="18" rx="18" ry="5" fill="none" stroke="#ff2850" stroke-width="1.3" opacity="0.5" />
        <circle cx="21" cy="18" r="2" fill="#ff2850" opacity="0.5" />
        <text class="mono" x="21" y="48" font-size="11" font-weight="700" fill="#ff2850" text-anchor="middle">D3</text>
      </g>
      <g transform="translate(102,0)">
        <ellipse cx="21" cy="18" rx="16" ry="18" fill="none" stroke="#ffc828" stroke-width="1.3" opacity="0.7" />
        <ellipse cx="21" cy="18" rx="18" ry="5" fill="none" stroke="#ffc828" stroke-width="1.3" opacity="0.5" />
        <circle cx="21" cy="18" r="2" fill="#ffc828" opacity="0.5" />
        <text class="mono" x="21" y="48" font-size="11" font-weight="700" fill="#ffc828" text-anchor="middle">D4</text>
      </g>
      <g transform="translate(153,0)">
        <ellipse cx="21" cy="18" rx="16" ry="18" fill="none" stroke="#28dc50" stroke-width="1.3" opacity="0.7" />
        <ellipse cx="21" cy="18" rx="18" ry="5" fill="none" stroke="#28dc50" stroke-width="1.3" opacity="0.5" />
        <circle cx="21" cy="18" r="2" fill="#28dc50" opacity="0.5" />
        <text class="mono" x="21" y="48" font-size="11" font-weight="700" fill="#28dc50" text-anchor="middle">D5</text>
      </g>
      <g transform="translate(204,0)">
        <ellipse cx="21" cy="18" rx="16" ry="18" fill="none" stroke="#ff8c00" stroke-width="1.3" opacity="0.7" />
        <ellipse cx="21" cy="18" rx="18" ry="5" fill="none" stroke="#ff8c00" stroke-width="1.3" opacity="0.5" />
        <circle cx="21" cy="18" r="2" fill="#ff8c00" opacity="0.5" />
        <text class="mono" x="21" y="48" font-size="11" font-weight="700" fill="#ff8c00" text-anchor="middle">D6</text>
      </g>
      <g transform="translate(255,0)">
        <ellipse cx="21" cy="18" rx="16" ry="18" fill="none" stroke="#b43cff" stroke-width="1.3" opacity="0.7" />
        <ellipse cx="21" cy="18" rx="18" ry="5" fill="none" stroke="#b43cff" stroke-width="1.3" opacity="0.5" />
        <circle cx="21" cy="18" r="2" fill="#b43cff" opacity="0.5" />
        <text class="mono" x="21" y="48" font-size="11" font-weight="700" fill="#b43cff" text-anchor="middle">D7</text>
      </g>
      <g transform="translate(306,0)">
        <ellipse cx="21" cy="18" rx="16" ry="18" fill="none" stroke="#ff64a0" stroke-width="1.3" opacity="0.7" />
        <ellipse cx="21" cy="18" rx="18" ry="5" fill="none" stroke="#ff64a0" stroke-width="1.3" opacity="0.5" />
        <circle cx="21" cy="18" r="2" fill="#ff64a0" opacity="0.5" />
        <text class="mono" x="21" y="48" font-size="11" font-weight="700" fill="#ff64a0" text-anchor="middle">D8</text>
      </g>
      <g transform="translate(357,0)">
        <ellipse cx="21" cy="18" rx="16" ry="18" fill="none" stroke="#00c8c8" stroke-width="1.3" opacity="0.7" />
        <ellipse cx="21" cy="18" rx="18" ry="5" fill="none" stroke="#00c8c8" stroke-width="1.3" opacity="0.5" />
        <circle cx="21" cy="18" r="2" fill="#00c8c8" opacity="0.5" />
        <text class="mono" x="21" y="48" font-size="11" font-weight="700" fill="#00c8c8" text-anchor="middle">D9</text>
      </g>
      <g transform="translate(408,0)">
        <ellipse cx="21" cy="18" rx="16" ry="18" fill="none" stroke="#ffdc64" stroke-width="1.3" opacity="0.7" />
        <ellipse cx="21" cy="18" rx="18" ry="5" fill="none" stroke="#ffdc64" stroke-width="1.3" opacity="0.5" />
        <circle cx="21" cy="18" r="2" fill="#ffdc64" opacity="0.5" />
        <text class="mono" x="21" y="48" font-size="11" font-weight="700" fill="#ffdc64" text-anchor="middle">D10</text>
      </g>
      <g transform="translate(459,0)">
        <ellipse cx="21" cy="18" rx="16" ry="18" fill="none" stroke="#6464ff" stroke-width="1.3" opacity="0.7" />
        <ellipse cx="21" cy="18" rx="18" ry="5" fill="none" stroke="#6464ff" stroke-width="1.3" opacity="0.5" />
        <circle cx="21" cy="18" r="2" fill="#6464ff" opacity="0.5" />
        <text class="mono" x="21" y="48" font-size="11" font-weight="700" fill="#6464ff" text-anchor="middle">D11</text>
      </g>
      <g transform="translate(510,0)">
        <ellipse cx="21" cy="18" rx="16" ry="18" fill="none" stroke="#ffb48c" stroke-width="1.3" opacity="0.7" />
        <ellipse cx="21" cy="18" rx="18" ry="5" fill="none" stroke="#ffb48c" stroke-width="1.3" opacity="0.5" />
        <circle cx="21" cy="18" r="2" fill="#ffb48c" opacity="0.5" />
        <text class="mono" x="21" y="48" font-size="11" font-weight="700" fill="#ffb48c" text-anchor="middle">D12</text>
      </g>
      <g transform="translate(561,0)">
        <ellipse cx="21" cy="18" rx="16" ry="18" fill="none" stroke="#8cffc8" stroke-width="1.3" opacity="0.7" />
        <ellipse cx="21" cy="18" rx="18" ry="5" fill="none" stroke="#8cffc8" stroke-width="1.3" opacity="0.5" />
        <circle cx="21" cy="18" r="2" fill="#8cffc8" opacity="0.5" />
        <text class="mono" x="21" y="48" font-size="11" font-weight="700" fill="#8cffc8" text-anchor="middle">D13</text>
      </g>
      <g transform="translate(612,0)">
        <ellipse cx="21" cy="18" rx="16" ry="18" fill="none" stroke="#ff3cc8" stroke-width="1.3" opacity="0.7" />
        <ellipse cx="21" cy="18" rx="18" ry="5" fill="none" stroke="#ff3cc8" stroke-width="1.3" opacity="0.5" />
        <circle cx="21" cy="18" r="2" fill="#ff3cc8" opacity="0.5" />
        <text class="mono" x="21" y="48" font-size="11" font-weight="700" fill="#ff3cc8" text-anchor="middle">D14</text>
      </g>
      <g transform="translate(663,0)">
        <ellipse cx="21" cy="18" rx="16" ry="18" fill="none" stroke="#8cc8ff" stroke-width="1.3" opacity="0.7" />
        <ellipse cx="21" cy="18" rx="18" ry="5" fill="none" stroke="#8cc8ff" stroke-width="1.3" opacity="0.5" />
        <circle cx="21" cy="18" r="2" fill="#8cc8ff" opacity="0.5" />
        <text class="mono" x="21" y="48" font-size="11" font-weight="700" fill="#8cc8ff" text-anchor="middle">D15</text>
      </g>
      <g transform="translate(714,0)">
        <ellipse cx="21" cy="18" rx="16" ry="18" fill="none" stroke="#c8ff3c" stroke-width="1.3" opacity="0.7" />
        <ellipse cx="21" cy="18" rx="18" ry="5" fill="none" stroke="#c8ff3c" stroke-width="1.3" opacity="0.5" />
        <circle cx="21" cy="18" r="2" fill="#c8ff3c" opacity="0.5" />
        <text class="mono" x="21" y="48" font-size="11" font-weight="700" fill="#c8ff3c" text-anchor="middle">D16</text>
      </g>
    </g>
  </g>

  <!-- ══════════════════════════════════════════════ -->
  <!-- TRANSPORT BAR (bottom:21, 25%-75%) @ s=1.333  -->
  <!-- ══════════════════════════════════════════════ -->
  <g transform="translate(480,1053)">
    <!-- Pause -->
    <rect x="0" y="-5" width="3" height="11" fill="#0090a3" />
    <rect x="5" y="-5" width="3" height="11" fill="#0090a3" />
    <!-- Speed + time -->
    <text class="mono" x="20" y="4" font-size="12" fill="#999999">1x</text>
    <text class="mono" x="52" y="4" font-size="12" fill="#999999">0:31</text>
    <!-- Progress bar -->
    <rect x="100" y="-2" width="800" height="4" rx="2" fill="#eeeeee" />
    <rect x="100" y="-2" width="280" height="4" rx="2" fill="#0090a3" />
    <!-- Playhead -->
    <circle cx="380" cy="0" r="6" fill="none" stroke="#0090a3" stroke-width="2.5" />
    <!-- Duration -->
    <text class="mono" x="916" y="4" font-size="12" fill="#999999">5:58</text>
    <!-- Loop -->
    <circle cx="948" cy="0" r="5" fill="none" stroke="#0090a3" stroke-width="1.5" stroke-dasharray="8 3" />
  </g>

  <!-- ══════════════════════════════════════════════ -->
  <!-- PADDING ANNOTATIONS (blue)                     -->
  <!-- ══════════════════════════════════════════════ -->

  <!-- GS value box padding: 3px vert, 13px horiz (2*s, 10*s) -->
  <!-- Box world coords: x=358..480, y=484..532 -->
  <!-- Top padding -->
  <line x1="342" y1="484" x2="342" y2="497" stroke="#3388cc" stroke-width="1" />
  <line x1="338" y1="484" x2="346" y2="484" stroke="#3388cc" stroke-width="1" />
  <line x1="338" y1="497" x2="346" y2="497" stroke="#3388cc" stroke-width="1" />
  <text x="330" y="494" text-anchor="end" font-family="SF Mono, Menlo, monospace" font-size="10" fill="#3388cc">3px</text>

  <!-- Left padding inside box -->
  <line x1="358" y1="536" x2="371" y2="536" stroke="#3388cc" stroke-width="1" />
  <line x1="358" y1="532" x2="358" y2="540" stroke="#3388cc" stroke-width="1" />
  <line x1="371" y1="532" x2="371" y2="540" stroke="#3388cc" stroke-width="1" />
  <text x="365" y="552" text-anchor="middle" font-family="SF Mono, Menlo, monospace" font-size="10" fill="#3388cc">13px</text>

  <!-- Gap: label to box top = 6px -->
  <line x1="490" y1="478" x2="490" y2="484" stroke="#3388cc" stroke-width="1" />
  <line x1="486" y1="478" x2="494" y2="478" stroke="#3388cc" stroke-width="1" />
  <line x1="486" y1="484" x2="494" y2="484" stroke="#3388cc" stroke-width="1" />
  <text x="500" y="484" font-family="SF Mono, Menlo, monospace" font-size="10" fill="#3388cc">6px</text>

  <!-- Gap: box bottom to unit text = 12px -->
  <line x1="490" y1="532" x2="490" y2="544" stroke="#3388cc" stroke-width="1" />
  <line x1="486" y1="532" x2="494" y2="532" stroke="#3388cc" stroke-width="1" />
  <line x1="486" y1="544" x2="494" y2="544" stroke="#3388cc" stroke-width="1" />
  <text x="500" y="541" font-family="SF Mono, Menlo, monospace" font-size="10" fill="#3388cc">12px</text>

  <!-- Pinned value line spacing: 22px between baselines -->
  <line x1="492" y1="464" x2="492" y2="442" stroke="#3388cc" stroke-width="1" />
  <line x1="488" y1="464" x2="496" y2="464" stroke="#3388cc" stroke-width="1" />
  <line x1="488" y1="442" x2="496" y2="442" stroke="#3388cc" stroke-width="1" />
  <text x="502" y="456" font-family="SF Mono, Menlo, monospace" font-size="10" fill="#3388cc">22px line</text>

  <!-- ALT value box padding (mirrored) -->
  <!-- Box world coords: x=1440..1562, y=484..532 -->
  <line x1="1576" y1="484" x2="1576" y2="497" stroke="#3388cc" stroke-width="1" />
  <line x1="1572" y1="484" x2="1580" y2="484" stroke="#3388cc" stroke-width="1" />
  <line x1="1572" y1="497" x2="1580" y2="497" stroke="#3388cc" stroke-width="1" />
  <text x="1586" y="494" font-family="SF Mono, Menlo, monospace" font-size="10" fill="#3388cc">3px</text>

  <line x1="1549" y1="536" x2="1562" y2="536" stroke="#3388cc" stroke-width="1" />
  <line x1="1549" y1="532" x2="1549" y2="540" stroke="#3388cc" stroke-width="1" />
  <line x1="1562" y1="532" x2="1562" y2="540" stroke="#3388cc" stroke-width="1" />
  <text x="1556" y="552" text-anchor="middle" font-family="SF Mono, Menlo, monospace" font-size="10" fill="#3388cc">13px</text>

  <!-- ══════════════════════════════════════════════ -->
  <!-- GS STACK TO RADAR CLEARANCE (red)              -->
  <!-- Speed stack bottom: unit "m/s" baseline y=544  -->
  <!-- Radar panel top: y=692                         -->
  <!-- Vertical clearance: 148px                      -->
  <!-- Horizontal overlap: radar right=388,           -->
  <!--   stack box left=286 → 102px overlap in X      -->
  <!-- ══════════════════════════════════════════════ -->

  <!-- Vertical clearance line -->
  <!-- Speed stack bottom (unit baseline): y=544, Radar top: y=692 -->
  <line x1="380" y1="544" x2="380" y2="692" stroke="#cc3333" stroke-width="1.3" stroke-dasharray="6 4" />
  <line x1="370" y1="544" x2="390" y2="544" stroke="#cc3333" stroke-width="1" />
  <line x1="370" y1="692" x2="390" y2="692" stroke="#cc3333" stroke-width="1" />
  <text x="394" y="622" font-family="SF Mono, Menlo, monospace" font-size="12" fill="#cc3333" font-weight="600">148px vert. gap</text>

  <!-- Horizontal overlap bracket -->
  <!-- Stack box left=358, Radar right=388 → 30px overlap in X -->
  <line x1="358" y1="680" x2="388" y2="680" stroke="#cc3333" stroke-width="1" stroke-dasharray="4 3" />
  <line x1="358" y1="676" x2="358" y2="684" stroke="#cc3333" stroke-width="1" />
  <line x1="388" y1="676" x2="388" y2="684" stroke="#cc3333" stroke-width="1" />
  <text x="373" y="670" text-anchor="middle" font-family="SF Mono, Menlo, monospace" font-size="10" fill="#cc3333">30px X overlap</text>

  <!-- ══════════════════════════════════════════════ -->
  <!-- DIMENSION ANNOTATIONS                         -->
  <!-- ══════════════════════════════════════════════ -->

  <!-- Top edge: 21px (16*1.333) -->
  <line x1="8" y1="0" x2="8" y2="21" class="dim-line" />
  <line x1="4" y1="0" x2="12" y2="0" class="dim-line" />
  <line x1="4" y1="21" x2="12" y2="21" class="dim-line" />
  <text class="dim-text" x="16" y="14">21px</text>

  <!-- Left edge: 27px (20*1.333) -->
  <line x1="0" y1="88" x2="27" y2="88" class="dim-line" />
  <line x1="0" y1="84" x2="0" y2="92" class="dim-line" />
  <line x1="27" y1="84" x2="27" y2="92" class="dim-line" />
  <text class="dim-text" x="6" y="104">27px</text>

  <!-- Right edge: 27px -->
  <line x1="1893" y1="88" x2="1920" y2="88" class="dim-line" />
  <line x1="1893" y1="84" x2="1893" y2="92" class="dim-line" />
  <line x1="1920" y1="84" x2="1920" y2="92" class="dim-line" />
  <text class="dim-text" x="1898" y="104">27px</text>

  <!-- Bottom transport: 21px -->
  <line x1="1912" y1="1059" x2="1912" y2="1080" class="dim-line" />
  <line x1="1908" y1="1059" x2="1916" y2="1059" class="dim-line" />
  <line x1="1908" y1="1080" x2="1916" y2="1080" class="dim-line" />
  <text class="dim-text" x="1878" y="1074" text-anchor="end">21px</text>

  <!-- Radar: 95px from left (71*1.333) -->
  <line x1="0" y1="840" x2="95" y2="840" class="dim-line" />
  <line x1="0" y1="836" x2="0" y2="844" class="dim-line" />
  <line x1="95" y1="836" x2="95" y2="844" class="dim-line" />
  <text class="dim-text" x="48" y="858" text-anchor="middle">95px</text>

  <!-- Radar: 95px from bottom -->
  <line x1="72" y1="985" x2="72" y2="1080" class="dim-line" />
  <line x1="68" y1="985" x2="76" y2="985" class="dim-line" />
  <line x1="68" y1="1080" x2="76" y2="1080" class="dim-line" />
  <text class="dim-text" x="54" y="1036" text-anchor="end" transform="rotate(-90,54,1036)">95px</text>

  <!-- Speed stack: 25% from left edge (aligned to transport left) -->
  <line x1="0" y1="468" x2="480" y2="468" class="dim-dash" />
  <line x1="0" y1="464" x2="0" y2="472" class="dim-line" />
  <line x1="480" y1="464" x2="480" y2="472" class="dim-line" />
  <text class="dim-text" x="240" y="462" text-anchor="middle">25% &#8212; right-aligned, flush with transport</text>

  <!-- Alt stack: 25% from right edge (aligned to transport right) -->
  <line x1="1440" y1="468" x2="1920" y2="468" class="dim-dash" />
  <line x1="1440" y1="464" x2="1440" y2="472" class="dim-line" />
  <line x1="1920" y1="464" x2="1920" y2="472" class="dim-line" />
  <text class="dim-text" x="1680" y="462" text-anchor="middle">25% &#8212; left-aligned, flush with transport</text>

  <!-- Transport width -->
  <line x1="480" y1="1078" x2="1440" y2="1078" class="dim-line" />
  <line x1="480" y1="1074" x2="480" y2="1080" class="dim-line" />
  <line x1="1440" y1="1074" x2="1440" y2="1080" class="dim-line" />
  <text class="dim-text" x="960" y="1074" text-anchor="middle">50% viewport (25% to 75%)</text>

  <!-- Gimbal row: 56px from bottom (42*1.333) -->
  <line x1="1350" y1="1024" x2="1350" y2="1080" class="dim-line" />
  <line x1="1346" y1="1024" x2="1354" y2="1024" class="dim-line" />
  <line x1="1346" y1="1080" x2="1354" y2="1080" class="dim-line" />
  <text class="dim-text" x="1360" y="1056">56px</text>

  <!-- Radar size label -->
  <text class="dim-text" x="241" y="680" text-anchor="middle">293 x 293</text>


  <!-- ═══════════════════════════════════════════════════════════
       ANNOTATIONS — leader lines + numbered callouts
       ═══════════════════════════════════════════════════════════ -->
  <defs>
    <style>
      .annot-leader { stroke: #ff7700; stroke-width: 1.5; fill: none; opacity: 0.9; }
      .annot-num-bg { fill: #ff7700; }
      .annot-num-text { fill: #ffffff; font-size: 14px; font-weight: 800; text-anchor: middle; font-family: -apple-system, sans-serif; }
      .annot-title { fill: #ff7700; font-size: 14px; font-weight: 700; font-family: -apple-system, sans-serif; }
      .annot-label { fill: #333333; font-size: 13px; font-weight: 500; font-family: -apple-system, sans-serif; }
    </style>
  </defs>

  <!-- 1. Timer + status (top-left) -->
  <line x1="100" y1="60" x2="200" y2="160" class="annot-leader" />
  <circle cx="200" cy="160" r="13" class="annot-num-bg" />
  <text x="200" y="165" class="annot-num-text">1</text>
  <g transform="translate(220, 145)">
    <text class="annot-title">Timer + Status</text>
    <text y="18" class="annot-label">Playback time, sim/replay state</text>
    <text y="34" class="annot-label">indicator with connection dot.</text>
  </g>

  <!-- 2. Ticker / mode bar (top-center) -->
  <line x1="960" y1="60" x2="960" y2="180" class="annot-leader" />
  <circle cx="960" cy="180" r="13" class="annot-num-bg" />
  <text x="960" y="185" class="annot-num-text">2</text>
  <g transform="translate(820, 200)">
    <text class="annot-title">Mode / marker ticker</text>
    <text y="18" class="annot-label">Cycles current flight mode and</text>
    <text y="34" class="annot-label">recently crossed marker labels.</text>
  </g>

  <!-- 3. Heading (top-right) -->
  <line x1="1830" y1="60" x2="1720" y2="160" class="annot-leader" />
  <circle cx="1720" cy="160" r="13" class="annot-num-bg" />
  <text x="1720" y="165" class="annot-num-text">3</text>
  <g transform="translate(1500, 145)">
    <text class="annot-title">Heading</text>
    <text y="18" class="annot-label">Current heading, large value,</text>
    <text y="34" class="annot-label">no compass tape (radar shows it).</text>
  </g>

  <!-- 4. Speed stack (left center) -->
  <line x1="380" y1="540" x2="280" y2="400" class="annot-leader" />
  <circle cx="280" cy="400" r="13" class="annot-num-bg" />
  <text x="280" y="405" class="annot-num-text">4</text>
  <g transform="translate(50, 360)">
    <text class="annot-title">Ground speed stack</text>
    <text y="18" class="annot-label">Primary drone GS in large box;</text>
    <text y="34" class="annot-label">pinned drones stacked above in</text>
    <text y="50" class="annot-label">their fleet colors.</text>
  </g>

  <!-- 5. Altitude stack (right center) -->
  <line x1="1540" y1="540" x2="1640" y2="400" class="annot-leader" />
  <circle cx="1640" cy="400" r="13" class="annot-num-bg" />
  <text x="1640" y="405" class="annot-num-text">5</text>
  <g transform="translate(1465, 360)">
    <text class="annot-title">Altitude stack</text>
    <text y="18" class="annot-label">Mirror of speed stack on the</text>
    <text y="34" class="annot-label">right side. Same pinning logic.</text>
  </g>

  <!-- 6. Center reticle / vehicle position -->
  <line x1="960" y1="540" x2="1060" y2="640" class="annot-leader" />
  <circle cx="1060" cy="640" r="13" class="annot-num-bg" />
  <text x="1060" y="645" class="annot-num-text">6</text>
  <g transform="translate(1080, 625)">
    <text class="annot-title">Vehicle anchor</text>
    <text y="18" class="annot-label">Selected drone is centered.</text>
    <text y="34" class="annot-label">3D gimbal rings render around it.</text>
  </g>

  <!-- 7. Pinned drone ring cell (top-left corner cell at 95,95) -->
  <line x1="170" y1="170" x2="280" y2="270" class="annot-leader" />
  <circle cx="280" cy="270" r="13" class="annot-num-bg" />
  <text x="280" y="275" class="annot-num-text">7</text>
  <g transform="translate(300, 255)">
    <text class="annot-title">Pinned drone ring cells</text>
    <text y="18" class="annot-label">Mini 2D gimbal rings for each</text>
    <text y="34" class="annot-label">pinned drone in the corners.</text>
    <text y="50" class="annot-label">Marker crossings trigger ring</text>
    <text y="66" class="annot-label">bounce; STATUSTEXT triggers shake.</text>
  </g>

  <!-- 8. Notification panel (bottom-right area, around 1700,692) -->
  <line x1="1760" y1="760" x2="1620" y2="850" class="annot-leader" />
  <circle cx="1620" cy="850" r="13" class="annot-num-bg" />
  <text x="1620" y="855" class="annot-num-text">8</text>
  <g transform="translate(1300, 870)">
    <text class="annot-title">STATUSTEXT notification panel</text>
    <text y="18" class="annot-label">Severity-colored warning feed,</text>
    <text y="34" class="annot-label">N key to toggle. Tactical version</text>
    <text y="50" class="annot-label">of the Console ticker zone.</text>
  </g>

  <!-- 9. Transport bar (bottom) -->
  <line x1="960" y1="1010" x2="700" y2="900" class="annot-leader" />
  <circle cx="700" cy="900" r="13" class="annot-num-bg" />
  <text x="700" y="905" class="annot-num-text">9</text>
  <g transform="translate(420, 890)">
    <text class="annot-title">Transport bar (50% height)</text>
    <text y="18" class="annot-label">Compact replay scrubber with</text>
    <text y="34" class="annot-label">marker ticks. Less prominent than</text>
    <text y="50" class="annot-label">the Console version.</text>
  </g>

  <!-- 10. Center reticle marker -->
  <line x1="960" y1="540" x2="850" y2="450" class="annot-leader" />
  <circle cx="850" cy="450" r="13" class="annot-num-bg" />
  <text x="850" y="455" class="annot-num-text">10</text>
  <g transform="translate(620, 410)">
    <text class="annot-title">Center reticle</text>
    <text y="18" class="annot-label">Camera focus indicator. The 3D</text>
    <text y="34" class="annot-label">gimbal rings (yaw / pitch / roll)</text>
    <text y="50" class="annot-label">surround the selected vehicle.</text>
  </g>

  <!-- Title -->
  <text x="960" y="22" font-size="18" fill="#222222" font-weight="700" text-anchor="middle" font-family="-apple-system, sans-serif">Hawkeye Tactical HUD</text>

</svg>
